<?xml version="1.0" encoding="utf-8"?>
<!-- Generator: Adobe Illustrator 22.0.1, SVG Export Plug-In . SVG Version: 6.00 Build 0)  -->
<svg version="1.1" id="Слой_1" xmlns="http://www.w3.org/2000/svg" xmlns:xlink="http://www.w3.org/1999/xlink" x="0px" y="0px"
	 viewBox="0 0 400 56" style="enable-background:new 0 0 400 56;" xml:space="preserve">
<style type="text/css">
	.st0{fill:#FFFFFF;}
	.st1{fill:#4BD5F9;}
</style>
<g>
	<path class="st0" d="M73.8,24.7c4.7,2.6,8.1,6,10,10.2c0.9,2,1.3,3.9,1.3,5.8c0,2-0.6,3.7-1.6,5.3c-0.9,1.4-2.1,2.3-3.5,2.9
		c-1.4,0.5-2.8,0.5-4.2,0.1c-1.5-0.5-2.8-1.5-4-2.9c-1.3-1.6-2.2-3.7-2.9-6.2c-1-3.9-2.1-6.4-3.3-7.4c-0.5-0.4-0.8-0.5-1.1-0.3
		c-0.2,0.2-0.3,0.6-0.2,1.2v0.1l0,0.1l0,0.3c0,0.3,0.1,0.5,0.1,0.8c0.1,0.7,0.2,1.3,0.2,2c0.1,1.9,0.1,3.6,0,5.2
		c-0.5,4.5-2.4,6.9-5.5,7c-3.4,0.1-5.8-2.4-7.2-7.5c-1.1-4.2-1.4-9.8-1-16.8c0.5-6.9,1.5-12.2,3.1-15.8c2-4.5,4.8-6.3,8.5-5.4
		c1.8,0.4,2.9,1.5,3.4,3.2c0.6,2,0.1,4.6-1.5,7.9c-0.4,0.8-0.5,1.3-0.2,1.5c0.3,0.2,0.7,0.1,1.5-0.4c1.8-1.1,3.7-3.1,5.6-6.1
		C72.6,7.5,74,6.4,75.6,6c1.5-0.4,2.9-0.3,4.3,0.5c1.4,0.7,2.3,1.8,2.9,3.2c0.6,1.6,0.7,3.2,0.1,5c-0.6,1.9-1.6,3.5-3.1,4.8
		c-1,0.9-2.3,1.8-3.9,2.6c-0.2,0.1-0.5,0.2-0.9,0.4l-0.4,0.2l-0.4,0.2c-0.5,0.2-0.9,0.4-1,0.6C72.7,23.8,72.9,24.2,73.8,24.7z
		 M59.3,6c0.5-0.3,1-0.5,1.5-0.6c-0.5,0-1.1,0.1-1.7,0.3c-0.5,0.3-1,0.6-1.4,1.1c-0.7,0.7-1.3,1.7-1.8,3c-0.4,1-0.8,2.1-1.1,3.3
		c-0.2,0.9-0.4,2.1-0.5,3.4l0.5-1.6l0.5-1.6c0.5-1.4,0.8-2.4,1.2-3.2c0.5-1.2,1.1-2.2,1.6-2.9C58.5,6.7,58.9,6.3,59.3,6z M72,13.1
		c0.5-0.6,0.8-1.1,1.1-1.5l0.3-0.4l0.3-0.4c0.2-0.3,0.4-0.6,0.5-0.7c0.9-1.1,1.8-1.8,3-1.8c-0.6-0.1-1.2,0.1-1.8,0.4
		c-0.6,0.3-1.1,0.7-1.5,1.2c-0.2,0.2-0.4,0.5-0.6,0.8L73,10.9l-0.3,0.4c-0.3,0.5-0.7,1-1.1,1.5c-0.8,1-1.6,1.9-2.4,2.8
		c-1.1,1.1-2,1.8-2.8,2.4c1-0.4,2.1-1.1,3.1-2C70.3,15.1,71.2,14.2,72,13.1z"/>
	<path class="st0" d="M110.7,3.1c2.8,0.5,5.4,2.9,7.9,7.3c2.1,3.9,3.8,8.8,5.1,14.5c1.2,5.5,1.7,10.5,1.5,14.8
		c-0.3,4.6-1.3,7.4-3.2,8.2c-1.6,0.7-3.1,0.7-4.7,0.1c-1.2-0.5-2.5-1.5-4-2.9l-0.9-0.9l-0.9-0.9c-0.7-0.8-1.2-1.3-1.6-1.7
		c-1.2-1.1-2.2-1.7-3-1.7c-0.8,0-1.7,0.6-2.9,1.8c-0.3,0.3-0.8,0.9-1.5,1.8l-0.8,1c-0.3,0.4-0.6,0.7-0.9,1C99.4,47,98,48,96.7,48.6
		c-1.7,0.8-3.5,0.8-5.3,0.1c-2.4-0.9-3.4-3.9-3-9c0.4-4.6,1.9-9.9,4.4-15.9c2.5-6,5.3-11,8.5-14.8C104.7,4.6,107.9,2.7,110.7,3.1z
		 M102.1,12.4c1.2-1.6,2.3-3,3.4-4.1l0.5-0.5c0.2-0.2,0.3-0.3,0.5-0.4L107,7l0.5-0.4c0.9-0.6,1.7-0.9,2.4-1c-0.7,0-1.6,0.2-2.6,0.7
		l-0.6,0.4l-0.5,0.4c-0.2,0.1-0.3,0.2-0.5,0.4L105.2,8c-1.1,1-2.3,2.4-3.6,4.1c-1.1,1.5-2,3-2.9,4.6c-0.9,1.7-1.7,3.3-2.3,4.9
		l1.4-2.4c0.5-0.9,1-1.7,1.4-2.3C100.3,15.1,101.3,13.6,102.1,12.4z M107.3,29.8c0.5,0.2,1,0.1,1.5-0.2c0.5-0.3,0.9-0.8,1.2-1.5
		c0.3-0.7,0.3-1.3,0.2-1.9c-0.2-0.6-0.5-1-1-1.2c-0.5-0.2-1-0.1-1.5,0.2c-0.5,0.3-0.9,0.8-1.2,1.5c-0.3,0.6-0.3,1.3-0.1,1.9
		C106.5,29.2,106.8,29.6,107.3,29.8z M110.8,31.6c0.9-0.7,1.4-1.6,1.6-2.6c-0.7,0.9-1.3,1.7-1.9,2.1c-0.8,0.6-1.6,1-2.6,1.2
		c0.5,0.1,1,0.1,1.5,0C109.9,32.2,110.3,32,110.8,31.6z"/>
	<path class="st0" d="M162.8,13.1c1.5,3.2,2.5,6.8,3,10.9c0.5,3.9,0.5,7.7,0,11.4c-0.5,3.7-1.4,6.7-2.7,9c-1.4,2.5-3.1,3.8-5.2,3.9
		c-2.4,0.2-4.2-0.8-5.4-2.7c-1.7-2.6-2.4-7.2-2.1-13.7c0.1-2.9-0.2-5.4-0.8-7.3c-0.7-2.1-1.7-3-3-2.9c-2.3,0.3-2.9,3.2-1.8,8.7
		c1.3,6.9,1.7,11.8,1.1,14.6c-0.5,2.5-2,3.9-4.4,4.2c-1.7,0.2-3.4-0.6-5.2-2.4c-1.7-1.7-3.1-4.2-4.4-7.3c-2.9-7-4.1-14.1-3.4-21.4
		c0.4-3.9,2-7.2,4.9-9.9c2.7-2.5,6-4.1,9.9-4.7c3.9-0.7,7.6-0.2,11.1,1.4C158.2,6.4,161,9.2,162.8,13.1z M140.1,7
		c0.4-0.2,0.8-0.4,1.4-0.5l0.7-0.2l0.7-0.2c-2.1,0.3-4,1-5.6,2c-0.6,0.3-1.5,0.9-2.4,1.8l-0.3,0.3l-0.3,0.3
		c-0.2,0.2-0.4,0.4-0.5,0.5l-0.5,0.6l-0.5,0.6c-1.1,1.7-1.8,3.5-2,5.6c-0.2,1.9-0.2,3.9,0.1,6l0-1.5c0-0.6,0.1-1.1,0.1-1.5l0.1-1.5
		c0-0.5,0.1-1,0.2-1.5c0.3-2.1,1-3.8,2.1-5.3c0.4-0.6,1-1.3,1.9-2.2c0.8-0.8,1.5-1.4,2.3-1.8c0.2-0.1,0.4-0.3,0.6-0.4l0.6-0.4
		l0.6-0.3C139.7,7.2,139.9,7.1,140.1,7z"/>
	<path class="st0" d="M189.5,33.5c3.7-1.4,6.5-1.7,8.6-0.9c2,0.8,2.9,2.4,2.9,4.8c0,1.8-0.9,3.7-2.7,5.5c-1.7,1.7-3.8,3.2-6.5,4.3
		c-2.7,1.2-5.4,1.8-8,1.9c-2.9,0.1-5.3-0.5-7.3-1.8c-2-1.3-3.7-3.8-4.9-7.6c-1.2-3.5-1.9-7.5-2.1-11.9c-0.2-4.5,0.2-8.6,1.1-12.3
		c1-4.1,2.4-7,4.4-8.9c2.1-2,4.7-3.2,7.8-3.6c2.7-0.3,5.4,0,8.1,1c2.6,0.9,4.5,2.2,5.8,3.9c1.4,1.7,1.7,3.5,1,5.2
		c-0.5,1-1.2,1.7-2.3,2.2c-0.8,0.3-1.9,0.5-3.3,0.6l-0.9,0.1l-0.9,0c-0.7,0-1.3,0.1-1.7,0.2c-1.2,0.2-2.2,0.5-2.8,0.9
		c-0.4,0.3-0.7,0.7-0.8,1.2c-0.1,0.5-0.1,1,0,1.5c0.4,1.1,1.3,1.5,2.7,1.1c1.7-0.4,3.1-0.3,4.3,0.4c1.2,0.6,1.8,1.6,1.9,3
		c0.1,1.4-0.4,2.6-1.4,3.5c-1.1,1-2.8,1.6-5.1,1.8c-0.8,0.1-1.4,0.4-1.7,1c-0.4,0.6-0.5,1.1-0.3,1.8c0.2,0.7,0.6,1.1,1.3,1.4
		C187.4,33.9,188.3,33.9,189.5,33.5z M181.8,5.9c0.8-0.2,1.8-0.4,2.9-0.5c-0.9-0.1-1.9,0-3,0.2s-2,0.5-2.8,0.9
		c-0.9,0.4-1.7,1-2.5,1.7c-0.6,0.6-1.3,1.4-1.8,2.4c-0.9,1.6-1.5,3.5-2,5.6c-0.4,1.9-0.6,3.8-0.6,5.9l0.2-1.5c0.1-0.6,0.2-1,0.3-1.5
		c0.2-1,0.4-2,0.6-2.9c0.6-2.2,1.3-4,2.1-5.4c0.5-0.9,1.1-1.7,1.7-2.3c0.6-0.6,1.4-1.2,2.3-1.7C179.9,6.5,180.8,6.2,181.8,5.9z
		 M187.7,23.1l-0.5,0.2l-0.5,0.2c0.3,0.1,0.7,0.2,1.1,0.1c0.2,0,0.3,0,0.5-0.1l0.2,0l0.3,0c0.3,0,0.6-0.1,1-0.1c0.4,0,0.7,0,1,0.1
		c-0.2-0.3-0.5-0.5-0.9-0.6c-0.3-0.1-0.7-0.1-1.1,0c-0.2,0-0.3,0.1-0.5,0.1L188,23L187.7,23.1z M191.6,35.7c1.4-0.5,2.7-0.8,3.8-1
		c-0.6-0.1-1.3-0.1-2,0c-0.6,0.1-1.3,0.2-2,0.5c-0.3,0.1-0.6,0.2-1,0.4l-0.5,0.2l-0.5,0.2c-0.6,0.2-1.3,0.4-1.9,0.5
		c0.6,0.1,1.3,0.1,2.1-0.1c0.3,0,0.6-0.1,1-0.3l0.5-0.2L191.6,35.7z"/>
	<path class="st0" d="M240,20.1c2.3,6.1,3.4,11.8,3.3,17c-0.1,2.3-0.4,4.3-1,6c-0.6,1.6-1.4,2.8-2.4,3.4c-1.6,1-3.3,1-5.1,0
		c-2-1.1-3.7-3.2-5.2-6.3c-0.6-1.2-1.2-2.7-1.9-4.5l-0.4-1.1l-0.4-1.1c-0.3-0.8-0.5-1.5-0.7-2c-0.5-1.4-1-2.3-1.5-2.9
		c-0.6-0.7-1.2-1-1.8-0.9c-0.8,0.2-1.5,1.5-2.2,3.9c-0.2,0.7-0.4,1.9-0.8,3.6l-0.2,1l-0.2,1c-0.2,0.8-0.3,1.5-0.5,2.1
		c-0.8,3.3-1.7,5.7-2.8,7.3c-1.4,2.1-3.3,2.9-5.6,2.5c-1.5-0.2-2.8-1.2-3.8-2.8c-1-1.5-1.7-3.6-2.2-6.1c-0.9-5.2-0.8-10.8,0.6-16.8
		c1.2-5.3,3.1-9.9,5.7-13.6c2.8-4,5.8-6.2,9.1-6.6c3.9-0.5,7.7,0.8,11.4,4.1C235,10.3,237.9,14.7,240,20.1z M221.5,5.5
		c-1.7-0.1-3.3,0.3-4.9,1.4c-1.3,0.9-2.5,2.1-3.6,3.6c-1,1.4-1.9,2.9-2.6,4.4c-0.7,1.6-1.3,3.2-1.7,4.8c0.8-1.8,1.5-3.4,2.1-4.6
		c0.9-1.7,1.8-3.1,2.6-4.3c1.1-1.5,2.2-2.7,3.4-3.6c0.1-0.1,0.3-0.2,0.5-0.4l0.5-0.4l0.3-0.1l0.3-0.2c0.2-0.1,0.4-0.2,0.5-0.2
		c0.2-0.1,0.4-0.2,0.6-0.2l0.6-0.2L221.5,5.5z"/>
	<path class="st0" d="M267.7,21.6c3.8,1.2,6.7,3.3,8.6,6.3c1.7,2.8,2.3,5.9,1.8,9.2c-0.5,3.3-2,6.1-4.4,8.3
		c-2.7,2.4-6.1,3.7-10.2,3.7c-4.3,0-7.9-1.1-10.7-3.5c-2.5-2.2-4.3-5.2-5.3-9.1c-0.9-3.5-1.2-7.4-0.7-11.7c0.5-4.1,1.5-7.9,3.2-11.4
		c1.6-3.4,3.4-6,5.3-7.8c1.7-1.6,3.4-2.5,5.2-2.6c1.6-0.1,3,0.3,4.1,1.4c1.1,1.1,1.8,2.5,2,4.3c0.2,1.3,0.1,2.7-0.2,4.4
		c-0.1,0.5-0.2,1.1-0.4,2l-0.2,0.9c-0.1,0.3-0.1,0.6-0.2,0.9c-0.2,1.3-0.2,2.3,0,2.9C265.9,20.7,266.6,21.3,267.7,21.6z M259.4,6
		c0.5-0.3,1-0.5,1.5-0.5c-1-0.1-2,0.2-3.1,1c-0.8,0.6-1.7,1.3-2.4,2.3c-0.7,0.8-1.3,1.7-1.8,2.8c-0.5,0.8-0.9,1.8-1.3,3l0.8-1.4
		c0.3-0.6,0.6-1,0.9-1.4c0.7-1.1,1.4-2,1.9-2.6c0.7-0.9,1.5-1.7,2.2-2.3C258.5,6.5,259,6.2,259.4,6z M262.3,32.7
		c0.3,0.6,0.8,1.1,1.3,1.4c0.5,0.3,1,0.3,1.5,0.1c0.5-0.2,0.8-0.7,0.8-1.3c0.1-0.6,0-1.2-0.3-1.9c-0.3-0.6-0.8-1.1-1.3-1.4
		c-0.5-0.3-1-0.3-1.5-0.1c-0.5,0.2-0.7,0.7-0.8,1.3C261.9,31.4,262,32.1,262.3,32.7z M268,35.2c0.4-0.6,0.6-1.2,0.6-1.9
		c0.1-0.7,0-1.3-0.3-2c0,0.7-0.1,1.3-0.2,1.9c-0.2,0.7-0.4,1.2-0.7,1.6c-0.7,1-1.7,1.7-3,1.9c0.7,0.1,1.3,0,2-0.3
		C267.1,36.2,267.6,35.8,268,35.2z"/>
	<path class="st0" d="M304.5,24.7c4.7,2.6,8.1,6,10,10.2c0.9,2,1.3,3.9,1.3,5.8c0,2-0.6,3.7-1.6,5.3c-0.9,1.4-2.1,2.3-3.5,2.9
		c-1.4,0.5-2.8,0.5-4.2,0.1c-1.5-0.5-2.8-1.5-4-2.9c-1.3-1.6-2.2-3.7-2.9-6.2c-1-3.9-2.1-6.4-3.3-7.4c-0.5-0.4-0.8-0.5-1.1-0.3
		c-0.2,0.2-0.3,0.6-0.2,1.2v0.1l0,0.1l0,0.3c0,0.3,0.1,0.5,0.1,0.8c0.1,0.7,0.2,1.3,0.2,2c0.2,1.9,0.1,3.6,0,5.2
		c-0.5,4.5-2.4,6.9-5.5,7c-3.4,0.1-5.8-2.4-7.2-7.5c-1.1-4.2-1.4-9.8-1-16.8c0.5-6.9,1.5-12.2,3.1-15.8c2-4.5,4.8-6.3,8.5-5.4
		c1.8,0.4,2.9,1.5,3.4,3.2c0.6,2,0.1,4.6-1.5,7.9c-0.4,0.8-0.5,1.3-0.2,1.5c0.3,0.2,0.7,0.1,1.5-0.4c1.8-1.1,3.7-3.1,5.6-6.1
		c1.2-1.7,2.6-2.8,4.2-3.3c1.5-0.4,2.9-0.3,4.3,0.5c1.4,0.7,2.3,1.8,2.9,3.2c0.6,1.6,0.7,3.2,0.1,5c-0.6,1.9-1.6,3.5-3.1,4.8
		c-1,0.9-2.3,1.8-3.9,2.6c-0.2,0.1-0.5,0.2-0.9,0.4l-0.4,0.2l-0.4,0.2c-0.5,0.2-0.9,0.4-1,0.6C303.5,23.8,303.7,24.2,304.5,24.7z
		 M290.1,6c0.5-0.3,1-0.5,1.5-0.6c-0.5,0-1.1,0.1-1.7,0.3c-0.5,0.3-1,0.6-1.4,1.1c-0.7,0.7-1.3,1.7-1.8,3c-0.4,1-0.8,2.1-1.1,3.3
		c-0.2,0.9-0.4,2.1-0.5,3.4l0.5-1.6l0.5-1.6c0.5-1.4,0.8-2.4,1.2-3.2c0.5-1.2,1.1-2.2,1.6-2.9C289.2,6.7,289.6,6.3,290.1,6z
		 M302.8,13.1c0.5-0.6,0.8-1.1,1.1-1.5l0.3-0.4l0.3-0.4c0.2-0.3,0.4-0.6,0.5-0.7c0.9-1.1,1.8-1.8,3-1.8c-0.6-0.1-1.2,0.1-1.8,0.4
		c-0.6,0.3-1.1,0.7-1.5,1.2c-0.2,0.2-0.4,0.5-0.6,0.8l-0.3,0.4l-0.3,0.4c-0.3,0.5-0.7,1-1.1,1.5c-0.8,1-1.6,1.9-2.4,2.8
		c-1.1,1.1-2,1.8-2.8,2.4c1-0.4,2.1-1.1,3.1-2C301.1,15.1,301.9,14.2,302.8,13.1z"/>
</g>
<path class="st1" d="M341.3,1c6.7,4.5,10.7,9.4,12.9,12.7c4,5.7,10.2,14.6,7.2,23.7c-1.7,4.9-5.3,7.6-6.6,8.5
	c-6.8,4.9-17.8,6.1-24.8,0c-5.6-4.9-5.8-12.1-5.8-12.9c-0.1-8.3,5.8-13.4,6.6-14c2.2-1.7,5.8-5.1,8.3-10.5C340.4,5.6,341,3,341.3,1z
	"/>
<g>
</g>
<g>
</g>
<g>
</g>
<g>
</g>
<g>
</g>
<g>
</g>
<g>
</g>
<g>
</g>
<g>
</g>
<g>
</g>
<g>
</g>
<g>
</g>
<g>
</g>
<g>
</g>
<g>
</g>
</svg>
